<svg xmlns="http://www.w3.org/2000/svg" xmlns:xlink="http://www.w3.org/1999/xlink" version="1.1" x="0px" y="0px" viewBox="0 0 100 125" enable-background="new 0 0 100 100" xml:space="preserve" color='#8A685B'><g><path d="M74.419,32.572c-0.442,0-0.891,0.045-1.34,0.128v-0.102h-2.387c-1.492-4.45-5.422-7.765-10.055-8.472   c-1.702-5.111-6.533-8.629-11.957-8.629c-5.409,0-10.204,3.477-11.929,8.55c-0.411-0.042-0.799-0.063-1.173-0.063   c-5.41,0-10.235,3.518-11.941,8.614h-2.39v17.609c0,14.291,11.625,25.916,25.915,25.916c11.777,0,21.737-7.898,24.879-18.676   c0.799,0.258,1.598,0.395,2.377,0.395c5.393,0,9.78-5.668,9.78-12.634C84.199,38.24,79.812,32.572,74.419,32.572z M35.579,25.812   c0.51,0,1.059,0.047,1.68,0.145l0.81,0.127l0.214-0.792c1.269-4.69,5.544-7.967,10.398-7.967c4.813,0,9.078,3.24,10.375,7.878   l0.168,0.601l0.62,0.063c3.935,0.399,7.358,2.997,8.859,6.606h-43.08C27.271,28.499,31.205,25.812,35.579,25.812z M47.163,74.295   c-13.281,0-24.087-10.805-24.087-24.087V34.426h48.175v15.781C71.251,63.49,60.444,74.295,47.163,74.295z M74.419,56.014   c-0.437,0-0.885-0.057-1.34-0.166v-5.64V34.566c0.453-0.11,0.902-0.166,1.34-0.166c4.385,0,7.952,4.848,7.952,10.808   C82.371,51.166,78.804,56.014,74.419,56.014z"/><path d="M18.749,77.951h-2.948v1.676h3.921l2.831,4.875h51.2l2.831-4.875h3.921v-1.676h-2.947H18.749z M72.7,82.674H23.605   l-1.681-2.895H74.38L72.7,82.674z"/></g><text x="0" y="115" fill="#000000" font-size="5px" font-weight="bold" font-family="'Helvetica Neue', Helvetica, Arial-Unicode, Arial, Sans-serif"><!-- Created by asianson.design --></text><text x="0" y="120" fill="#000000" font-size="5px" font-weight="bold" font-family="'Helvetica Neue', Helvetica, Arial-Unicode, Arial, Sans-serif"><!-- from the Noun Project --></text></svg>